<svg width="257" height="34" fill="none" xmlns="http://www.w3.org/2000/svg"><path d="M13.13 28h4.05V4.77H11.3c-5.92 0-9.03 3.04-9.03 7.52 0 3.58 1.7 5.68 4.75 7.86L1.74 28h4.38L12 19.21l-2.04-1.37c-2.47-1.67-3.68-2.97-3.68-5.78 0-2.47 1.74-4.15 5.05-4.15h1.8V28zm53.11-1.14v-3.24c-1.24.84-3.3 1.57-5.25 1.57-2.9 0-4-1.37-4.17-4.18h9.59v-2.1c0-5.85-2.58-8.05-6.55-8.05-4.85 0-7.16 3.7-7.16 8.78 0 5.85 2.88 8.7 7.96 8.7 2.54 0 4.41-.67 5.58-1.48zm24.87 1.47c1.83 0 3.14-.33 4.1-1.03v-3.24c-1 .7-2.2 1.13-3.87 1.13-2.84 0-4.01-2.2-4.01-5.68 0-3.64 1.44-5.51 4.04-5.51 1.54 0 3.04.53 3.85 1.03v-3.37c-.84-.47-2.31-.8-4.28-.8-5.08 0-7.72 3.64-7.72 8.75 0 5.62 2.57 8.72 7.89 8.72zM29.8 11.2v6.65h-5.3V11.2h-3.98V28h3.98v-7.02h5.31V28h3.98V11.19H29.8zm21.93 13.67h-1.78V11.19h-11.6v1.44c0 4.1-.26 9.42-1.66 12.23h-1.24v6.98h3.68V28h8.92v3.84h3.68v-6.98zM78.94 28h4.51l-6.38-9.06 5.61-7.75h-4l-5.62 7.75V11.2h-3.98V28h3.98v-8.25L78.94 28zM59.8 14c1.97 0 2.57 1.63 2.57 3.74v.33h-5.54C56.93 15.4 57.9 14 59.8 14zM46 24.86h-5.62c1.1-2.54 1.4-7.12 1.4-10.03v-.5H46v10.53zm58.36-20.09V28h4.05V7.91h7.22V28h4.04V4.77h-15.3zm22.31 6.42H123v21.66h3.97v-6.82a4.9 4.9 0 004.18 2.3c3.88 0 6.55-3.1 6.55-8.75 0-5.62-2.6-8.72-6.35-8.72-1.87 0-3.4.86-4.47 2.5l-.2-2.17zm3.48 14c-2.1 0-3.18-1.7-3.18-5.58 0-3.9 1.14-5.61 3.38-5.61 2.17 0 3.24 1.7 3.24 5.58 0 3.9-1.13 5.61-3.44 5.61zm22.61-8.65c0-4.08-2.07-5.62-6.28-5.62-2.64 0-4.71.84-5.91 1.54v3.3c1.06-.8 3.4-1.66 5.44-1.66 1.9 0 2.78.67 2.78 2.47v.94h-.64c-6.08 0-8.79 2-8.79 5.41 0 3.4 2.07 5.31 5.15 5.31 2.34 0 3.34-.76 4.11-1.57h.17c.03.44.16 1 .3 1.34h3.88c-.14-1.37-.2-2.74-.2-4.11v-7.35zm-3.97 7.45c-.5.73-1.44 1.34-2.84 1.34-1.67 0-2.51-1-2.51-2.51 0-1.97 1.37-2.67 4.78-2.67h.57v3.84zM165.82 28h4.51l-6.38-9.06 5.61-7.75h-4l-5.62 7.75V11.2h-3.98V28h3.98v-8.25l5.88 8.25zm17.68-13.67V11.2h-13.33v3.14h4.68V28h3.97V14.33h4.68zm2.36-3.14V28h3.44l6.15-10.4V28h3.88V11.19h-3.45l-6.14 10.4v-10.4h-3.88zM212.53 28h4.5l-6.38-9.06 5.62-7.75h-4.01l-5.62 7.75V11.2h-3.97V28h3.97v-8.25l5.89 8.25zm8 5.18c3.72 0 5.09-2.64 6.22-6.08L232 11.19h-3.84l-3.71 12.63-3.71-12.63h-4.18l5.78 17.55c-.43.8-1.07 1.3-2.17 1.3a2.5 2.5 0 01-1.8-.67v3.24s.6.57 2.17.57zM247.86 28h3.87l-.06-16.81h-5.45l-3.64 11.2-3.28-11.2h-5.78V28h3.38V15.43L240.52 28h3.24l4.08-12.57V28z" fill="#000"/></svg>